# xmcd
#
# Track frame offsets: 
#        183
#        13390
#        26560
#        40715
#        83595
#        105843
#        136930
#        160558
#        184583
#        207398
#        247983
#        266178
#        302115
#
# Disc length: 4468 seconds
#
# Revision: 1
# Processed by: cddbd v1.5.2PL0 Copyright (c) Steve Scherf et al.
# Submitted via: ExactAudioCopy v0.99pb4
#
DISCID=9e11720d
DTITLE=John Mayall - 1966-72 [CD2]
DYEAR=1900
DGENRE=
TTITLE0=The Super Natural
TTITLE1=Hartley Quits
TTITLE2=No Reply
TTITLE3=California
TTITLE4=Room to Move
TTITLE5=So Hard to Share
TTITLE6=First Time Alone
TTITLE7=I'm Gonna Fight for You J. B.
TTITLE8=Do it
TTITLE9=Fly Tomorrow
TTITLE10=Red Sky
TTITLE11=Thoughts About Roxanna
TTITLE12=The Laws Must Change
EXTD=
EXTT0=
EXTT1=
EXTT2=
EXTT3=
EXTT4=
EXTT5=
EXTT6=
EXTT7=
EXTT8=
EXTT9=
EXTT10=
EXTT11=
EXTT12=
PLAYORDER=
